<?xml version="1.0" standalone="no"?>
<!DOCTYPE svg PUBLIC "-//W3C//DTD SVG 20010904//EN"
 "http://www.w3.org/TR/2001/REC-SVG-20010904/DTD/svg10.dtd">
<svg version="1.0" xmlns="http://www.w3.org/2000/svg"
 width="5000.000000pt" height="5000.000000pt" viewBox="0 0 5000.000000 5000.000000"
 preserveAspectRatio="xMidYMid meet">

<g transform="translate(0.000000,5000.000000) scale(0.100000,-0.100000)"
fill="#000000" stroke="none">
<path d="M3940 25000 l0 -12920 1640 0 1640 0 0 10152 0 10151 568 -849 c313
-467 1848 -2764 3412 -5104 1564 -2340 3065 -4586 3335 -4990 271 -404 1780
-2663 3355 -5020 1575 -2357 2874 -4300 2887 -4318 l24 -32 1752 2 1752 3 -2
4960 c-1 2728 -2 8543 -3 12923 l0 7962 -1640 0 -1640 0 -2 -10137 -3 -10137
-331 494 c-366 546 -4199 6277 -6131 9165 -677 1012 -2551 3813 -4165 6225
l-2934 4385 -1757 3 -1757 2 0 -12920z"/>
<path d="M29910 24995 l0 -12925 8075 0 8075 0 0 1530 0 1530 -6365 0 -6365 0
0 11395 0 11395 -1710 0 -1710 0 0 -12925z"/>
</g>
</svg>
